<svg xmlns="http://www.w3.org/2000/svg" xmlns:xlink="http://www.w3.org/1999/xlink" width="109.096" height="28.535" viewBox="0 0 109.096 28.535"><defs><clipPath id="a"><path d="M53,72.13l-.1,21.806a3.7,3.7,0,0,0,3.76-3.583v-15.3h9.52a2.95,2.95,0,0,0,3-2.9Z" transform="translate(0 -72.13)" fill="none"/></clipPath><linearGradient id="b" x1="-6.116" y1="-8.409" x2="-6.044" y2="-8.409" gradientUnits="objectBoundingBox"><stop offset="0" stop-color="#007aba"/><stop offset="0.01" stop-color="#007aba"/><stop offset="0.55" stop-color="#0095d3"/><stop offset="0.59" stop-color="#0090ce"/><stop offset="1" stop-color="#0068a0"/></linearGradient><clipPath id="c"><rect width="3.77" height="14.94" fill="none"/></clipPath><linearGradient id="d" x1="-22.992" y1="-13.091" x2="-22.682" y2="-13.091" xlink:href="#b"/><clipPath id="e"><path d="M29,72.13a2.95,2.95,0,0,0,3,2.9h9.53V90.355a3.7,3.7,0,0,0,3.76,3.631l-.1-21.808Z" transform="translate(0 -72.13)" fill="none"/></clipPath><linearGradient id="f" x1="-4.652" y1="-8.417" x2="-4.581" y2="-8.417" xlink:href="#b"/></defs><g transform="translate(-29 -64.43)"><g transform="translate(0.31 71.69)"><path d="M105.63,77.86l-1.86,6.33h-1.4l1.87-6.33h-2.17l.36-1.21h5.73l-.36,1.21Z" transform="translate(0 -76.522)" fill="#0068a0"/><path d="M114.1,84.19l-.1-1.61h-2.88l-1,1.61H108.7l5-7.54H115l.55,7.54Zm-.25-5.84h0l-1.93,3H114Z" transform="translate(0 -76.522)" fill="#939aa2"/><path d="M119.22,79.78l-1.3,4.41h-1.28l1.3-4.41h-.77l.3-1h.77l.2-.7a2,2,0,0,1,2-1.55,6.193,6.193,0,0,1,.63,0l-.31,1.08a3.869,3.869,0,0,0-.48,0,.54.54,0,0,0-.57.41l-.22.74h.94l-.3,1Z" transform="translate(0 -76.522)" fill="#939aa2"/><path d="M123.93,79.86a2.92,2.92,0,0,0-.5,0,2.09,2.09,0,0,0-1.66,1.51L121,84.19h-1.29l1.6-5.41h1.26l-.27.9h0a3.14,3.14,0,0,1,2.06-1,2,2,0,0,1,.43,0l-.35,1.19a2.481,2.481,0,0,0-.48,0" transform="translate(0 -76.522)" fill="#939aa2"/><path d="M124,84.19l1.59-5.41h1.29l-1.59,5.41Zm1.88-6.38.34-1.16h1.29l-.34,1.16Z" transform="translate(0 -76.522)" fill="#939aa2"/><path d="M128.92,84.32c-1.33,0-2.29-.78-1.87-2.21l.31-1.06a3.32,3.32,0,0,1,3.18-2.37c1.18,0,2.17.69,1.74,2.13v.1H131v-.1c.21-.74-.28-1-.81-1a1.5,1.5,0,0,0-1.47,1.11l-.37,1.27c-.2.69.18,1.09.86,1.09a1.42,1.42,0,0,0,1.38-1h1.26a3,3,0,0,1-3,2.12" transform="translate(0 -76.522)" fill="#939aa2"/><path d="M135.42,84.19c0-.09.08-.41.09-.5h0a2.35,2.35,0,0,1-1.74.6c-1.12,0-1.7-.61-1.4-1.63A2.58,2.58,0,0,1,134.84,81h1.44l.15-.5c.16-.57-.15-.81-.8-.81s-1,.19-1.13.54l-.06.18h-1.16v-.14a2.55,2.55,0,0,1,2.62-1.59c1.2,0,2.19.4,1.8,1.73L137,83a5.681,5.681,0,0,0-.25,1.16Zm.58-2.26h-1.27a1,1,0,0,0-1.1.66c-.14.46.16.69.77.69a1.36,1.36,0,0,0,1.52-1.09Z" transform="translate(0 -76.522)" fill="#939aa2"/><path d="M103.72,90.84l-.37-1h-.49l-.32,1h-.3l.82-2.59H104a.72.72,0,0,1,.52.17.56.56,0,0,1,.09.59,1.11,1.11,0,0,1-.89.77l.39,1.06Zm.54-1.83c.1-.34-.11-.51-.47-.51h-.51l-.34,1h.52a.74.74,0,0,0,.79-.54Z" transform="translate(0 -76.522)" fill="#a2c251"/><path d="M107.4,90.85h-.28l.13-2.13h-.01L106,90.85h-.28l.14-2.6h.3l-.15,2.13h.02l1.22-2.13h.3l-.14,2.13h.01l1.21-2.13h.29Z" transform="translate(0 -76.522)" fill="#a2c251"/><path d="M110.64,90.83v-.74h-1l-.49.74h-.3l1.77-2.6h.28l.09,2.6Zm-.06-2.21h0l-.81,1.22h.84Z" transform="translate(0 -76.522)" fill="#a2c251"/><path d="M113.55,90.84l-.37-1h-.49l-.32,1h-.3l.82-2.59h.89a.72.72,0,0,1,.52.17.54.54,0,0,1,.08.59,1.08,1.08,0,0,1-.88.77l.39,1.06Zm.53-1.83c.11-.34-.1-.51-.46-.51h-.52l-.33,1h.52a.75.75,0,0,0,.79-.54Z" transform="translate(0 -76.522)" fill="#a2c251"/><path d="M116,90.84h-.93l.82-2.59h.93c.53,0,.81.3.63.84l-.28.88a1.22,1.22,0,0,1-1.17.87m1.14-1.73c.11-.34,0-.6-.43-.6h-.61l-.66,2.06h.63a.83.83,0,0,0,.8-.59Z" transform="translate(0 -76.522)" fill="#a2c251"/></g><g transform="translate(0.38 71.787)"><path d="M91.04,77.86l-1.87,6.33H87.78l1.87-6.33H87.48l.35-1.21h5.73l-.35,1.21Z" transform="translate(0 -76.65)" fill="#0068a0"/><path d="M92.31,81.77l.29-.99h3.05l-.29.99Z" transform="translate(0 -76.65)" fill="#0068a0"/><path d="M95.19,84.19l.36-1.24h1.6l1.49-5.06h-1.6l.37-1.24H102l-.37,1.24h-1.6l-1.49,5.06h1.6l-.37,1.24Z" transform="translate(0 -76.65)" fill="#0068a0"/><path d="M87.65,90.85h-.29l.13-2.13h-.01l-1.23,2.13h-.29l.15-2.6h.3l-.15,2.13h.01l1.23-2.13h.29l-.14,2.13h.02l1.21-2.13h.29Z" transform="translate(0 -76.65)" fill="#a2c251"/><path d="M90.89,90.83v-.74h-1l-.49.74h-.31l1.77-2.6h.28l.1,2.6Zm-.06-2.21h0L90,89.84h.85Z" transform="translate(0 -76.65)" fill="#a2c251"/><path d="M93.32,89.75l-.34,1.08h-.29l.34-1.08-.34-1.5h.32l.26,1.22,1.05-1.22h.31Z" transform="translate(0 -76.65)" fill="#a2c251"/><path d="M97.5,88.51l-.28.86h1.01l-.08.26H97.14l-.38,1.2h-.3l.82-2.58h1.56l-.08.26Z" transform="translate(0 -76.65)" fill="#a2c251"/><path d="M100,90.88c-.53,0-.86-.3-.68-.86l.28-.88a1.33,1.33,0,0,1,1.26-.94c.56,0,.86.32.68.88l-.28.88a1.32,1.32,0,0,1-1.26.92m1.24-1.8c.12-.38-.05-.61-.47-.61a.89.89,0,0,0-.86.65l-.28.87c-.12.39.06.63.46.63A.88.88,0,0,0,101,90l.29-.91Z" transform="translate(0 -76.65)" fill="#a2c251"/></g><line y2="28.535" transform="translate(78.34 64.43)" fill="none" stroke="#3c3a3a" stroke-miterlimit="10" stroke-width="0.5"/><g transform="translate(0 67.792)" clip-path="url(#a)"><rect width="16.31" height="21.806" transform="translate(52.89)" fill="url(#b)"/></g><g transform="translate(0 67.792)"><g transform="translate(47.23 6.866)" clip-path="url(#c)"><rect width="3.77" height="14.94" fill="url(#d)"/></g><rect width="3.77" height="4.36" transform="translate(47.23)" fill="#a2c251"/></g><g transform="translate(0 67.778)" clip-path="url(#e)"><rect width="16.31" height="21.808" transform="translate(29.02)" fill="url(#f)"/></g></g></svg>